<svg xmlns="http://www.w3.org/2000/svg" version="1.1" xmlns:xlink="http://www.w3.org/1999/xlink" xmlns:svgjs="http://svgjs.dev/svgjs" width="750" height="1000" preserveAspectRatio="none" viewBox="0 0 750 1000"><g mask="url(&quot;#SvgjsMask1132&quot;)" fill="none"><rect width="750" height="1000" x="0" y="0" fill="rgba(165, 165, 165, 1)"></rect><path d="M594 789L236 1147" stroke-width="8" stroke="url(&quot;#SvgjsLinearGradient1133&quot;)" stroke-linecap="round" class="BottomLeft"></path><path d="M736 328L230 834" stroke-width="8" stroke="url(&quot;#SvgjsLinearGradient1133&quot;)" stroke-linecap="round" class="BottomLeft"></path><path d="M629 966L960 635" stroke-width="8" stroke="url(&quot;#SvgjsLinearGradient1134&quot;)" stroke-linecap="round" class="TopRight"></path><path d="M39 227L-260 526" stroke-width="6" stroke="url(&quot;#SvgjsLinearGradient1134&quot;)" stroke-linecap="round" class="TopRight"></path><path d="M698 837L140 1395" stroke-width="6" stroke="url(&quot;#SvgjsLinearGradient1134&quot;)" stroke-linecap="round" class="TopRight"></path><path d="M419 49L183 285" stroke-width="8" stroke="url(&quot;#SvgjsLinearGradient1134&quot;)" stroke-linecap="round" class="TopRight"></path><path d="M431 536L36 931" stroke-width="8" stroke="url(&quot;#SvgjsLinearGradient1133&quot;)" stroke-linecap="round" class="BottomLeft"></path><path d="M611 243L159 695" stroke-width="8" stroke="url(&quot;#SvgjsLinearGradient1134&quot;)" stroke-linecap="round" class="TopRight"></path><path d="M538 91L901 -272" stroke-width="8" stroke="url(&quot;#SvgjsLinearGradient1134&quot;)" stroke-linecap="round" class="TopRight"></path><path d="M226 646L-305 1177" stroke-width="8" stroke="url(&quot;#SvgjsLinearGradient1133&quot;)" stroke-linecap="round" class="BottomLeft"></path><path d="M92 828L-208 1128" stroke-width="6" stroke="url(&quot;#SvgjsLinearGradient1134&quot;)" stroke-linecap="round" class="TopRight"></path><path d="M120 456L-383 959" stroke-width="10" stroke="url(&quot;#SvgjsLinearGradient1134&quot;)" stroke-linecap="round" class="TopRight"></path><path d="M531 467L52 946" stroke-width="6" stroke="url(&quot;#SvgjsLinearGradient1134&quot;)" stroke-linecap="round" class="TopRight"></path><path d="M725 345L1155 -85" stroke-width="8" stroke="url(&quot;#SvgjsLinearGradient1133&quot;)" stroke-linecap="round" class="BottomLeft"></path><path d="M137 881L-147 1165" stroke-width="6" stroke="url(&quot;#SvgjsLinearGradient1134&quot;)" stroke-linecap="round" class="TopRight"></path><path d="M621 710L995 336" stroke-width="6" stroke="url(&quot;#SvgjsLinearGradient1133&quot;)" stroke-linecap="round" class="BottomLeft"></path><path d="M710 314L960 64" stroke-width="10" stroke="url(&quot;#SvgjsLinearGradient1133&quot;)" stroke-linecap="round" class="BottomLeft"></path><path d="M49 321L-461 831" stroke-width="6" stroke="url(&quot;#SvgjsLinearGradient1134&quot;)" stroke-linecap="round" class="TopRight"></path><path d="M97 663L-124 884" stroke-width="8" stroke="url(&quot;#SvgjsLinearGradient1133&quot;)" stroke-linecap="round" class="BottomLeft"></path><path d="M206 99L653 -348" stroke-width="8" stroke="url(&quot;#SvgjsLinearGradient1134&quot;)" stroke-linecap="round" class="TopRight"></path><path d="M52 102L400 -246" stroke-width="8" stroke="url(&quot;#SvgjsLinearGradient1134&quot;)" stroke-linecap="round" class="TopRight"></path><path d="M571 765L901 435" stroke-width="6" stroke="url(&quot;#SvgjsLinearGradient1133&quot;)" stroke-linecap="round" class="BottomLeft"></path><path d="M5 75L449 -369" stroke-width="10" stroke="url(&quot;#SvgjsLinearGradient1134&quot;)" stroke-linecap="round" class="TopRight"></path><path d="M664 210L1117 -243" stroke-width="6" stroke="url(&quot;#SvgjsLinearGradient1133&quot;)" stroke-linecap="round" class="BottomLeft"></path><path d="M362 439L901 -100" stroke-width="8" stroke="url(&quot;#SvgjsLinearGradient1133&quot;)" stroke-linecap="round" class="BottomLeft"></path><path d="M308 564L742 130" stroke-width="10" stroke="url(&quot;#SvgjsLinearGradient1133&quot;)" stroke-linecap="round" class="BottomLeft"></path><path d="M22 559L-261 842" stroke-width="6" stroke="url(&quot;#SvgjsLinearGradient1133&quot;)" stroke-linecap="round" class="BottomLeft"></path><path d="M714 172L982 -96" stroke-width="6" stroke="url(&quot;#SvgjsLinearGradient1134&quot;)" stroke-linecap="round" class="TopRight"></path><path d="M566 695L228 1033" stroke-width="10" stroke="url(&quot;#SvgjsLinearGradient1134&quot;)" stroke-linecap="round" class="TopRight"></path><path d="M320 712L-226 1258" stroke-width="6" stroke="url(&quot;#SvgjsLinearGradient1133&quot;)" stroke-linecap="round" class="BottomLeft"></path><path d="M258 800L-15 1073" stroke-width="8" stroke="url(&quot;#SvgjsLinearGradient1134&quot;)" stroke-linecap="round" class="TopRight"></path><path d="M257 691L-70 1018" stroke-width="6" stroke="url(&quot;#SvgjsLinearGradient1133&quot;)" stroke-linecap="round" class="BottomLeft"></path></g><defs><mask id="SvgjsMask1132"><rect width="750" height="1000" fill="#ffffff"></rect></mask><linearGradient x1="100%" y1="0%" x2="0%" y2="100%" id="SvgjsLinearGradient1133"><stop stop-color="rgba(111, 114, 117, 0)" offset="0"></stop><stop stop-color="rgba(111, 114, 117, 1)" offset="1"></stop></linearGradient><linearGradient x1="0%" y1="100%" x2="100%" y2="0%" id="SvgjsLinearGradient1134"><stop stop-color="rgba(111, 114, 117, 0)" offset="0"></stop><stop stop-color="rgba(111, 114, 117, 1)" offset="1"></stop></linearGradient></defs></svg>