<svg xmlns="http://www.w3.org/2000/svg" version="1.1" xmlns:xlink="http://www.w3.org/1999/xlink" xmlns:svgjs="http://svgjs.dev/svgjs" width="5000" height="10000" preserveAspectRatio="none" viewBox="0 0 5000 10000"><g mask="url(&quot;#SvgjsMask1041&quot;)" fill="none"><rect width="5000" height="10000" x="0" y="0" fill="rgba(43, 43, 43, 1)"></rect><path d="M0,2885.89C623.482,2975.447,1310.079,3202.898,1851.365,2880.78C2394.1,2557.8,2458.196,1816.352,2743.811,1253.057C3044.054,660.914,3562.35,150.189,3572.488,-513.646C3583.204,-1215.338,3254.723,-1891.692,2800.002,-2426.216C2342.957,-2963.472,1724.874,-3389.703,1028.795,-3503.755C365.308,-3612.466,-243.515,-3215.704,-889.925,-3030.805C-1541.832,-2844.334,-2338.627,-2923.617,-2784.689,-2412.947C-3230.872,-1902.138,-3157.871,-1129.904,-3142.609,-451.839C-3129.268,140.866,-2993.728,717.785,-2702.598,1234.235C-2428.071,1721.232,-2015.464,2102.345,-1538.446,2393.868C-1069.545,2680.43,-543.95,2807.757,0,2885.89" fill="#202020"></path><path d="M5000 12857.516C5584.715 12854.689 6191.096 12931.436 6706.756 12655.764 7241.504 12369.887999999999 7658 11879.678 7882.639 11316.457 8101.839 10766.872 8138.579 10133.408 7934.264 9578.117 7745.6939999999995 9065.618 7210.357 8804.603 6818.483 8424.275 6465.832 8082.014 6212.08 7614.643 5747.149 7455.443 5274.552 7293.618 4777.743 7491.775 4282.335 7555.858 3685.601 7633.048 3001.151 7481.276 2541.909 7870.052 2074.919 8265.387 1983.4340000000002 8948.547 1918.538 9556.953 1855.339 10149.453 1938.2199999999998 10743.291 2177.214 11289.123 2418.834 11840.954 2756.019 12379.736 3282.6059999999998 12672.317 3796.322 12957.747 4412.321 12860.357 5000 12857.516" fill="#363636"></path></g><defs><mask id="SvgjsMask1041"><rect width="5000" height="10000" fill="#ffffff"></rect></mask></defs></svg>