<svg xmlns="http://www.w3.org/2000/svg" version="1.1" xmlns:xlink="http://www.w3.org/1999/xlink" xmlns:svgjs="http://svgjs.dev/svgjs" width="2560" height="3000" preserveAspectRatio="none" viewBox="0 0 2560 3000"><g mask="url(&quot;#SvgjsMask1010&quot;)" fill="none"><rect width="2560" height="3000" x="0" y="0" fill="rgba(21, 67, 96, 1)"></rect><path d="M0,1245.182C228.026,1268.485,396.83,1027.656,552.037,858.986C679.375,720.602,706.225,527.36,806.765,368.437C929.066,175.117,1208.029,55.476,1205.073,-173.263C1202.177,-397.348,951.423,-528.614,793.124,-687.246C646.073,-834.606,513.694,-1010.603,313.279,-1066.93C113.75,-1123.008,-88.94,-1036.895,-291.284,-992.023C-509.118,-943.716,-757.213,-950.389,-916.557,-794.201C-1078.876,-635.097,-1137.441,-390.713,-1136.626,-163.422C-1135.868,48.168,-1034.948,244.237,-912.217,416.596C-804.738,567.535,-621.154,628.525,-483.994,753.11C-310.171,910.997,-233.608,1221.309,0,1245.182" fill="#103248"></path><path d="M2560 4428.7880000000005C2839.947 4437.28 3157.26 4439.85 3363.687 4250.561 3567 4064.127 3522.008 3739.57 3600.13 3475.012 3665.3469999999998 3254.154 3820.467 3051.409 3784.974 2823.875 3749.608 2597.1530000000002 3550.587 2444.728 3411.006 2262.599 3261.397 2067.386 3163.876 1811.311 2936.71 1717.043 2703.388 1620.22 2440.85 1698.58 2195.3559999999998 1758.135 1939.1689999999999 1820.284 1674.06 1884.692 1485.638 2069.06 1289.604 2260.876 1184.256 2525.288 1135.498 2795.187 1085.522 3071.828 1087.641 3363.361 1205.732 3618.473 1323.526 3872.942 1546.425 4058.758 1787.05 4202.734 2022.1680000000001 4343.415 2286.134 4420.48 2560 4428.7880000000005" fill="#1a5478"></path></g><defs><mask id="SvgjsMask1010"><rect width="2560" height="3000" fill="#ffffff"></rect></mask></defs></svg>