<svg xmlns="http://www.w3.org/2000/svg" version="1.1" xmlns:xlink="http://www.w3.org/1999/xlink" xmlns:svgjs="http://svgjs.dev/svgjs" width="5000" height="10000" preserveAspectRatio="none" viewBox="0 0 5000 10000"><g mask="url(&quot;#SvgjsMask1104&quot;)" fill="none"><rect width="5000" height="10000" x="0" y="0" fill="#0e2a47"></rect><path d="M0,3798.19C715.174,3762.113,1356.042,3432.879,1977.136,3076.484C2627.718,2703.169,3315.468,2335.537,3685.766,1683.233C4071.402,1003.91,4048.399,198.175,4054.512,-582.951C4061.606,-1489.495,4300.154,-2526.931,3724.192,-3227.031C3148.017,-3927.39,2075.592,-3854.714,1192.615,-4061.674C361.595,-4256.456,-499.89,-4718.851,-1292.826,-4402.962C-2077.71,-4090.281,-2334.727,-3137.443,-2835.487,-2456.964C-3290.206,-1839.049,-3845.81,-1313.514,-4099.219,-589.379C-4393.1,250.408,-4804.826,1217.223,-4398.192,2008.587C-3990.906,2801.22,-2935.06,2946.775,-2109.625,3282.64C-1425.243,3561.111,-737.929,3835.415,0,3798.19" fill="#0a1d32"></path><path d="M5000 13504.008C5708.722 13571.215 6501.527 13650.397 7074.073 13227.321 7641.594 12807.958 7739.719 12017.723 7930.697 11338.405 8095.867 10750.887 8091.661 10163.389 8106.96 9553.287 8125.555 8811.75 8528.72 7923.585999999999 8030.1 7374.404 7528.780000000001 6822.248 6597.693 7174.626 5858.366 7076.675 5252.124 6996.356 4679.855 6758.912 4075.203 6850.43 3410.353 6951.059 2732.767 7148.188 2255.609 7621.972 1762.687 8111.407999999999 1405.6709999999998 8791.015 1421.3919999999998 9485.474 1436.4679999999998 10151.445 2031.051 10624.423 2336.974 11216.163 2624.025 11771.4 2690.094 12449.239 3164.2039999999997 12856.554 3666.5609999999997 13288.136 4340.67 13441.485 5000 13504.008" fill="#12375c"></path></g><defs><mask id="SvgjsMask1104"><rect width="5000" height="10000" fill="#ffffff"></rect></mask></defs></svg>
